<svg xmlns="http://www.w3.org/2000/svg" viewBox="0 0 512 512" role="img" aria-label="Finlio">
  <defs>
    <linearGradient id="bg" x1="88" y1="64" x2="424" y2="448" gradientUnits="userSpaceOnUse">
      <stop stop-color="#8D5CF6"/>
      <stop offset="1" stop-color="#4E63F4"/>
    </linearGradient>
    <filter id="softShadow" x="-20%" y="-20%" width="140%" height="140%">
      <feDropShadow dx="0" dy="24" stdDeviation="22" flood-color="#3A2B91" flood-opacity=".28"/>
    </filter>
  </defs>
  <rect width="512" height="512" rx="116" fill="#F7F8FF"/>
  <rect x="68" y="68" width="376" height="376" rx="92" fill="url(#bg)" filter="url(#softShadow)"/>
  <path d="M258 123c9 0 17 6 20 15l18 62c3 9 10 16 19 19l62 18c9 3 15 11 15 20s-6 17-15 20l-62 18c-9 3-16 10-19 19l-18 62c-3 9-11 15-20 15s-17-6-20-15l-18-62c-3-9-10-16-19-19l-62-18c-9-3-15-11-15-20s6-17 15-20l62-18c9-3 16-10 19-19l18-62c3-9 11-15 20-15Z" fill="white"/>
  <path d="M164 126c6 0 11 4 13 10l7 24c1 5 5 9 10 10l24 7c6 2 10 7 10 13s-4 11-10 13l-24 7c-5 1-9 5-10 10l-7 24c-2 6-7 10-13 10s-11-4-13-10l-7-24c-1-5-5-9-10-10l-24-7c-6-2-10-7-10-13s4-11 10-13l24-7c5-1 9-5 10-10l7-24c2-6 7-10 13-10Z" fill="white" opacity=".86"/>
  <path d="M356 309c5 0 9 3 10 8l6 18c1 4 4 7 8 8l18 6c5 1 8 5 8 10s-3 9-8 10l-18 6c-4 1-7 4-8 8l-6 18c-1 5-5 8-10 8s-9-3-10-8l-6-18c-1-4-4-7-8-8l-18-6c-5-1-8-5-8-10s3-9 8-10l18-6c4-1 7-4 8-8l6-18c1-5 5-8 10-8Z" fill="white" opacity=".75"/>
</svg>
